<?xml version="1.0" encoding="utf-8"?>
<COLLADA xmlns="http://www.collada.org/2005/11/COLLADASchema" version="1.4.1">
  <asset>
    <contributor>
      <author>QLC+ Ball Head Generator</author>
      <authoring_tool>Python procedural generator</authoring_tool>
    </contributor>
    <unit name="meter" meter="1"/>
    <up_axis>Y_UP</up_axis>
  </asset>
  <library_images/>
  <library_effects>
    <effect id="Material_001-effect">
      <profile_COMMON>
        <technique sid="common">
          <phong>
            <emission><color sid="emission">0 0 0 1</color></emission>
            <ambient><color sid="ambient">0.12 0.12 0.12 1</color></ambient>
            <diffuse><color sid="diffuse">0.25 0.25 0.25 1</color></diffuse>
            <specular><color sid="specular">0.4 0.4 0.4 1</color></specular>
            <shininess><float sid="shininess">60</float></shininess>
            <index_of_refraction><float sid="index_of_refraction">1</float></index_of_refraction>
          </phong>
        </technique>
      </profile_COMMON>
    </effect>
  </library_effects>
  <library_materials>
    <material id="Material_001-material" name="Material_001">
      <instance_effect url="#Material_001-effect"/>
    </material>
  </library_materials>
  <library_geometries>
    <geometry id="vhead-mesh" name="vhead">
      <mesh>
        <source id="vhead-mesh-positions">
          <float_array id="vhead-mesh-positions-array" count="1224">0.000000 0.100000 0.000000 0.000000 0.100000 0.000000 0.000000 0.100000 0.000000 0.000000 0.100000 0.000000 0.000000 0.100000 0.000000 0.000000 0.100000 0.000000 0.000000 0.100000 0.000000 -0.000000 0.100000 0.000000 -0.000000 0.100000 0.000000 -0.000000 0.100000 0.000000 -0.000000 0.100000 0.000000 -0.000000 0.100000 0.000000 -0.000000 0.100000 0.000000 -0.000000 0.100000 -0.000000 -0.000000 0.100000 -0.000000 -0.000000 0.100000 -0.000000 -0.000000 0.100000 -0.000000 -0.000000 0.100000 -0.000000 -0.000000 0.100000 -0.000000 0.000000 0.100000 -0.000000 0.000000 0.100000 -0.000000 0.000000 0.100000 -0.000000 0.000000 0.100000 -0.000000 0.000000 0.100000 -0.000000 0.019509 0.098079 0.000000 0.018844 0.098079 0.005049 0.016895 0.098079 0.009755 0.013795 0.098079 0.013795 0.009755 0.098079 0.016895 0.005049 0.098079 0.018844 0.000000 0.098079 0.019509 -0.005049 0.098079 0.018844 -0.009755 0.098079 0.016895 -0.013795 0.098079 0.013795 -0.016895 0.098079 0.009755 -0.018844 0.098079 0.005049 -0.019509 0.098079 0.000000 -0.018844 0.098079 -0.005049 -0.016895 0.098079 -0.009755 -0.013795 0.098079 -0.013795 -0.009755 0.098079 -0.016895 -0.005049 0.098079 -0.018844 -0.000000 0.098079 -0.019509 0.005049 0.098079 -0.018844 0.009755 0.098079 -0.016895 0.013795 0.098079 -0.013795 0.016895 0.098079 -0.009755 0.018844 0.098079 -0.005049 0.038268 0.092388 0.000000 0.036964 0.092388 0.009905 0.033141 0.092388 0.019134 0.027060 0.092388 0.027060 0.019134 0.092388 0.033141 0.009905 0.092388 0.036964 0.000000 0.092388 0.038268 -0.009905 0.092388 0.036964 -0.019134 0.092388 0.033141 -0.027060 0.092388 0.027060 -0.033141 0.092388 0.019134 -0.036964 0.092388 0.009905 -0.038268 0.092388 0.000000 -0.036964 0.092388 -0.009905 -0.033141 0.092388 -0.019134 -0.027060 0.092388 -0.027060 -0.019134 0.092388 -0.033141 -0.009905 0.092388 -0.036964 -0.000000 0.092388 -0.038268 0.009905 0.092388 -0.036964 0.019134 0.092388 -0.033141 0.027060 0.092388 -0.027060 0.033141 0.092388 -0.019134 0.036964 0.092388 -0.009905 0.055557 0.083147 0.000000 0.053664 0.083147 0.014379 0.048114 0.083147 0.027779 0.039285 0.083147 0.039285 0.027779 0.083147 0.048114 0.014379 0.083147 0.053664 0.000000 0.083147 0.055557 -0.014379 0.083147 0.053664 -0.027779 0.083147 0.048114 -0.039285 0.083147 0.039285 -0.048114 0.083147 0.027779 -0.053664 0.083147 0.014379 -0.055557 0.083147 0.000000 -0.053664 0.083147 -0.014379 -0.048114 0.083147 -0.027779 -0.039285 0.083147 -0.039285 -0.027779 0.083147 -0.048114 -0.014379 0.083147 -0.053664 -0.000000 0.083147 -0.055557 0.014379 0.083147 -0.053664 0.027779 0.083147 -0.048114 0.039285 0.083147 -0.039285 0.048114 0.083147 -0.027779 0.053664 0.083147 -0.014379 0.070711 0.070711 0.000000 0.068301 0.070711 0.018301 0.061237 0.070711 0.035355 0.050000 0.070711 0.050000 0.035355 0.070711 0.061237 0.018301 0.070711 0.068301 0.000000 0.070711 0.070711 -0.018301 0.070711 0.068301 -0.035355 0.070711 0.061237 -0.050000 0.070711 0.050000 -0.061237 0.070711 0.035355 -0.068301 0.070711 0.018301 -0.070711 0.070711 0.000000 -0.068301 0.070711 -0.018301 -0.061237 0.070711 -0.035355 -0.050000 0.070711 -0.050000 -0.035355 0.070711 -0.061237 -0.018301 0.070711 -0.068301 -0.000000 0.070711 -0.070711 0.018301 0.070711 -0.068301 0.035355 0.070711 -0.061237 0.050000 0.070711 -0.050000 0.061237 0.070711 -0.035355 0.068301 0.070711 -0.018301 0.083147 0.055557 0.000000 0.080314 0.055557 0.021520 0.072007 0.055557 0.041573 0.058794 0.055557 0.058794 0.041573 0.055557 0.072007 0.021520 0.055557 0.080314 0.000000 0.055557 0.083147 -0.021520 0.055557 0.080314 -0.041573 0.055557 0.072007 -0.058794 0.055557 0.058794 -0.072007 0.055557 0.041573 -0.080314 0.055557 0.021520 -0.083147 0.055557 0.000000 -0.080314 0.055557 -0.021520 -0.072007 0.055557 -0.041573 -0.058794 0.055557 -0.058794 -0.041573 0.055557 -0.072007 -0.021520 0.055557 -0.080314 -0.000000 0.055557 -0.083147 0.021520 0.055557 -0.080314 0.041573 0.055557 -0.072007 0.058794 0.055557 -0.058794 0.072007 0.055557 -0.041573 0.080314 0.055557 -0.021520 0.092388 0.038268 0.000000 0.089240 0.038268 0.023912 0.080010 0.038268 0.046194 0.065328 0.038268 0.065328 0.046194 0.038268 0.080010 0.023912 0.038268 0.089240 0.000000 0.038268 0.092388 -0.023912 0.038268 0.089240 -0.046194 0.038268 0.080010 -0.065328 0.038268 0.065328 -0.080010 0.038268 0.046194 -0.089240 0.038268 0.023912 -0.092388 0.038268 0.000000 -0.089240 0.038268 -0.023912 -0.080010 0.038268 -0.046194 -0.065328 0.038268 -0.065328 -0.046194 0.038268 -0.080010 -0.023912 0.038268 -0.089240 -0.000000 0.038268 -0.092388 0.023912 0.038268 -0.089240 0.046194 0.038268 -0.080010 0.065328 0.038268 -0.065328 0.080010 0.038268 -0.046194 0.089240 0.038268 -0.023912 0.098079 0.019509 0.000000 0.094737 0.019509 0.025385 0.084938 0.019509 0.049039 0.069352 0.019509 0.069352 0.049039 0.019509 0.084938 0.025385 0.019509 0.094737 0.000000 0.019509 0.098079 -0.025385 0.019509 0.094737 -0.049039 0.019509 0.084938 -0.069352 0.019509 0.069352 -0.084938 0.019509 0.049039 -0.094737 0.019509 0.025385 -0.098079 0.019509 0.000000 -0.094737 0.019509 -0.025385 -0.084938 0.019509 -0.049039 -0.069352 0.019509 -0.069352 -0.049039 0.019509 -0.084938 -0.025385 0.019509 -0.094737 -0.000000 0.019509 -0.098079 0.025385 0.019509 -0.094737 0.049039 0.019509 -0.084938 0.069352 0.019509 -0.069352 0.084938 0.019509 -0.049039 0.094737 0.019509 -0.025385 0.100000 0.000000 0.000000 0.096593 0.000000 0.025882 0.086603 0.000000 0.050000 0.070711 0.000000 0.070711 0.050000 0.000000 0.086603 0.025882 0.000000 0.096593 0.000000 0.000000 0.100000 -0.025882 0.000000 0.096593 -0.050000 0.000000 0.086603 -0.070711 0.000000 0.070711 -0.086603 0.000000 0.050000 -0.096593 0.000000 0.025882 -0.100000 0.000000 0.000000 -0.096593 0.000000 -0.025882 -0.086603 0.000000 -0.050000 -0.070711 0.000000 -0.070711 -0.050000 0.000000 -0.086603 -0.025882 0.000000 -0.096593 -0.000000 0.000000 -0.100000 0.025882 0.000000 -0.096593 0.050000 0.000000 -0.086603 0.070711 0.000000 -0.070711 0.086603 0.000000 -0.050000 0.096593 0.000000 -0.025882 0.098079 -0.019509 0.000000 0.094737 -0.019509 0.025385 0.084938 -0.019509 0.049039 0.069352 -0.019509 0.069352 0.049039 -0.019509 0.084938 0.025385 -0.019509 0.094737 0.000000 -0.019509 0.098079 -0.025385 -0.019509 0.094737 -0.049039 -0.019509 0.084938 -0.069352 -0.019509 0.069352 -0.084938 -0.019509 0.049039 -0.094737 -0.019509 0.025385 -0.098079 -0.019509 0.000000 -0.094737 -0.019509 -0.025385 -0.084938 -0.019509 -0.049039 -0.069352 -0.019509 -0.069352 -0.049039 -0.019509 -0.084938 -0.025385 -0.019509 -0.094737 -0.000000 -0.019509 -0.098079 0.025385 -0.019509 -0.094737 0.049039 -0.019509 -0.084938 0.069352 -0.019509 -0.069352 0.084938 -0.019509 -0.049039 0.094737 -0.019509 -0.025385 0.092388 -0.038268 0.000000 0.089240 -0.038268 0.023912 0.080010 -0.038268 0.046194 0.065328 -0.038268 0.065328 0.046194 -0.038268 0.080010 0.023912 -0.038268 0.089240 0.000000 -0.038268 0.092388 -0.023912 -0.038268 0.089240 -0.046194 -0.038268 0.080010 -0.065328 -0.038268 0.065328 -0.080010 -0.038268 0.046194 -0.089240 -0.038268 0.023912 -0.092388 -0.038268 0.000000 -0.089240 -0.038268 -0.023912 -0.080010 -0.038268 -0.046194 -0.065328 -0.038268 -0.065328 -0.046194 -0.038268 -0.080010 -0.023912 -0.038268 -0.089240 -0.000000 -0.038268 -0.092388 0.023912 -0.038268 -0.089240 0.046194 -0.038268 -0.080010 0.065328 -0.038268 -0.065328 0.080010 -0.038268 -0.046194 0.089240 -0.038268 -0.023912 0.083147 -0.055557 0.000000 0.080314 -0.055557 0.021520 0.072007 -0.055557 0.041573 0.058794 -0.055557 0.058794 0.041573 -0.055557 0.072007 0.021520 -0.055557 0.080314 0.000000 -0.055557 0.083147 -0.021520 -0.055557 0.080314 -0.041573 -0.055557 0.072007 -0.058794 -0.055557 0.058794 -0.072007 -0.055557 0.041573 -0.080314 -0.055557 0.021520 -0.083147 -0.055557 0.000000 -0.080314 -0.055557 -0.021520 -0.072007 -0.055557 -0.041573 -0.058794 -0.055557 -0.058794 -0.041573 -0.055557 -0.072007 -0.021520 -0.055557 -0.080314 -0.000000 -0.055557 -0.083147 0.021520 -0.055557 -0.080314 0.041573 -0.055557 -0.072007 0.058794 -0.055557 -0.058794 0.072007 -0.055557 -0.041573 0.080314 -0.055557 -0.021520 0.070711 -0.070711 0.000000 0.068301 -0.070711 0.018301 0.061237 -0.070711 0.035355 0.050000 -0.070711 0.050000 0.035355 -0.070711 0.061237 0.018301 -0.070711 0.068301 0.000000 -0.070711 0.070711 -0.018301 -0.070711 0.068301 -0.035355 -0.070711 0.061237 -0.050000 -0.070711 0.050000 -0.061237 -0.070711 0.035355 -0.068301 -0.070711 0.018301 -0.070711 -0.070711 0.000000 -0.068301 -0.070711 -0.018301 -0.061237 -0.070711 -0.035355 -0.050000 -0.070711 -0.050000 -0.035355 -0.070711 -0.061237 -0.018301 -0.070711 -0.068301 -0.000000 -0.070711 -0.070711 0.018301 -0.070711 -0.068301 0.035355 -0.070711 -0.061237 0.050000 -0.070711 -0.050000 0.061237 -0.070711 -0.035355 0.068301 -0.070711 -0.018301 0.055557 -0.083147 0.000000 0.053664 -0.083147 0.014379 0.048114 -0.083147 0.027779 0.039285 -0.083147 0.039285 0.027779 -0.083147 0.048114 0.014379 -0.083147 0.053664 0.000000 -0.083147 0.055557 -0.014379 -0.083147 0.053664 -0.027779 -0.083147 0.048114 -0.039285 -0.083147 0.039285 -0.048114 -0.083147 0.027779 -0.053664 -0.083147 0.014379 -0.055557 -0.083147 0.000000 -0.053664 -0.083147 -0.014379 -0.048114 -0.083147 -0.027779 -0.039285 -0.083147 -0.039285 -0.027779 -0.083147 -0.048114 -0.014379 -0.083147 -0.053664 -0.000000 -0.083147 -0.055557 0.014379 -0.083147 -0.053664 0.027779 -0.083147 -0.048114 0.039285 -0.083147 -0.039285 0.048114 -0.083147 -0.027779 0.053664 -0.083147 -0.014379 0.038268 -0.092388 0.000000 0.036964 -0.092388 0.009905 0.033141 -0.092388 0.019134 0.027060 -0.092388 0.027060 0.019134 -0.092388 0.033141 0.009905 -0.092388 0.036964 0.000000 -0.092388 0.038268 -0.009905 -0.092388 0.036964 -0.019134 -0.092388 0.033141 -0.027060 -0.092388 0.027060 -0.033141 -0.092388 0.019134 -0.036964 -0.092388 0.009905 -0.038268 -0.092388 0.000000 -0.036964 -0.092388 -0.009905 -0.033141 -0.092388 -0.019134 -0.027060 -0.092388 -0.027060 -0.019134 -0.092388 -0.033141 -0.009905 -0.092388 -0.036964 -0.000000 -0.092388 -0.038268 0.009905 -0.092388 -0.036964 0.019134 -0.092388 -0.033141 0.027060 -0.092388 -0.027060 0.033141 -0.092388 -0.019134 0.036964 -0.092388 -0.009905 0.019509 -0.098079 0.000000 0.018844 -0.098079 0.005049 0.016895 -0.098079 0.009755 0.013795 -0.098079 0.013795 0.009755 -0.098079 0.016895 0.005049 -0.098079 0.018844 0.000000 -0.098079 0.019509 -0.005049 -0.098079 0.018844 -0.009755 -0.098079 0.016895 -0.013795 -0.098079 0.013795 -0.016895 -0.098079 0.009755 -0.018844 -0.098079 0.005049 -0.019509 -0.098079 0.000000 -0.018844 -0.098079 -0.005049 -0.016895 -0.098079 -0.009755 -0.013795 -0.098079 -0.013795 -0.009755 -0.098079 -0.016895 -0.005049 -0.098079 -0.018844 -0.000000 -0.098079 -0.019509 0.005049 -0.098079 -0.018844 0.009755 -0.098079 -0.016895 0.013795 -0.098079 -0.013795 0.016895 -0.098079 -0.009755 0.018844 -0.098079 -0.005049 0.000000 -0.100000 0.000000 0.000000 -0.100000 0.000000 0.000000 -0.100000 0.000000 0.000000 -0.100000 0.000000 0.000000 -0.100000 0.000000 0.000000 -0.100000 0.000000 0.000000 -0.100000 0.000000 -0.000000 -0.100000 0.000000 -0.000000 -0.100000 0.000000 -0.000000 -0.100000 0.000000 -0.000000 -0.100000 0.000000 -0.000000 -0.100000 0.000000 -0.000000 -0.100000 0.000000 -0.000000 -0.100000 -0.000000 -0.000000 -0.100000 -0.000000 -0.000000 -0.100000 -0.000000 -0.000000 -0.100000 -0.000000 -0.000000 -0.100000 -0.000000 -0.000000 -0.100000 -0.000000 0.000000 -0.100000 -0.000000 0.000000 -0.100000 -0.000000 0.000000 -0.100000 -0.000000 0.000000 -0.100000 -0.000000 0.000000 -0.100000 -0.000000</float_array>
          <technique_common>
            <accessor source="#vhead-mesh-positions-array" count="408" stride="3">
              <param name="X" type="float"/>
              <param name="Y" type="float"/>
              <param name="Z" type="float"/>
            </accessor>
          </technique_common>
        </source>
        <source id="vhead-mesh-normals">
          <float_array id="vhead-mesh-normals-array" count="1224">0.000000 1.000000 0.000000 0.000000 1.000000 0.000000 0.000000 1.000000 0.000000 0.000000 1.000000 0.000000 0.000000 1.000000 0.000000 0.000000 1.000000 0.000000 0.000000 1.000000 0.000000 -0.000000 1.000000 0.000000 -0.000000 1.000000 0.000000 -0.000000 1.000000 0.000000 -0.000000 1.000000 0.000000 -0.000000 1.000000 0.000000 -0.000000 1.000000 0.000000 -0.000000 1.000000 -0.000000 -0.000000 1.000000 -0.000000 -0.000000 1.000000 -0.000000 -0.000000 1.000000 -0.000000 -0.000000 1.000000 -0.000000 -0.000000 1.000000 -0.000000 0.000000 1.000000 -0.000000 0.000000 1.000000 -0.000000 0.000000 1.000000 -0.000000 0.000000 1.000000 -0.000000 0.000000 1.000000 -0.000000 0.195090 0.980785 0.000000 0.188443 0.980785 0.050493 0.168953 0.980785 0.097545 0.137950 0.980785 0.137950 0.097545 0.980785 0.168953 0.050493 0.980785 0.188443 0.000000 0.980785 0.195090 -0.050493 0.980785 0.188443 -0.097545 0.980785 0.168953 -0.137950 0.980785 0.137950 -0.168953 0.980785 0.097545 -0.188443 0.980785 0.050493 -0.195090 0.980785 0.000000 -0.188443 0.980785 -0.050493 -0.168953 0.980785 -0.097545 -0.137950 0.980785 -0.137950 -0.097545 0.980785 -0.168953 -0.050493 0.980785 -0.188443 -0.000000 0.980785 -0.195090 0.050493 0.980785 -0.188443 0.097545 0.980785 -0.168953 0.137950 0.980785 -0.137950 0.168953 0.980785 -0.097545 0.188443 0.980785 -0.050493 0.382683 0.923880 0.000000 0.369644 0.923880 0.099046 0.331414 0.923880 0.191342 0.270598 0.923880 0.270598 0.191342 0.923880 0.331414 0.099046 0.923880 0.369644 0.000000 0.923880 0.382683 -0.099046 0.923880 0.369644 -0.191342 0.923880 0.331414 -0.270598 0.923880 0.270598 -0.331414 0.923880 0.191342 -0.369644 0.923880 0.099046 -0.382683 0.923880 0.000000 -0.369644 0.923880 -0.099046 -0.331414 0.923880 -0.191342 -0.270598 0.923880 -0.270598 -0.191342 0.923880 -0.331414 -0.099046 0.923880 -0.369644 -0.000000 0.923880 -0.382683 0.099046 0.923880 -0.369644 0.191342 0.923880 -0.331414 0.270598 0.923880 -0.270598 0.331414 0.923880 -0.191342 0.369644 0.923880 -0.099046 0.555570 0.831470 0.000000 0.536640 0.831470 0.143792 0.481138 0.831470 0.277785 0.392847 0.831470 0.392847 0.277785 0.831470 0.481138 0.143792 0.831470 0.536640 0.000000 0.831470 0.555570 -0.143792 0.831470 0.536640 -0.277785 0.831470 0.481138 -0.392847 0.831470 0.392847 -0.481138 0.831470 0.277785 -0.536640 0.831470 0.143792 -0.555570 0.831470 0.000000 -0.536640 0.831470 -0.143792 -0.481138 0.831470 -0.277785 -0.392847 0.831470 -0.392847 -0.277785 0.831470 -0.481138 -0.143792 0.831470 -0.536640 -0.000000 0.831470 -0.555570 0.143792 0.831470 -0.536640 0.277785 0.831470 -0.481138 0.392847 0.831470 -0.392847 0.481138 0.831470 -0.277785 0.536640 0.831470 -0.143792 0.707107 0.707107 0.000000 0.683013 0.707107 0.183013 0.612372 0.707107 0.353553 0.500000 0.707107 0.500000 0.353553 0.707107 0.612372 0.183013 0.707107 0.683013 0.000000 0.707107 0.707107 -0.183013 0.707107 0.683013 -0.353553 0.707107 0.612372 -0.500000 0.707107 0.500000 -0.612372 0.707107 0.353553 -0.683013 0.707107 0.183013 -0.707107 0.707107 0.000000 -0.683013 0.707107 -0.183013 -0.612372 0.707107 -0.353553 -0.500000 0.707107 -0.500000 -0.353553 0.707107 -0.612372 -0.183013 0.707107 -0.683013 -0.000000 0.707107 -0.707107 0.183013 0.707107 -0.683013 0.353553 0.707107 -0.612372 0.500000 0.707107 -0.500000 0.612372 0.707107 -0.353553 0.683013 0.707107 -0.183013 0.831470 0.555570 0.000000 0.803138 0.555570 0.215200 0.720074 0.555570 0.415735 0.587938 0.555570 0.587938 0.415735 0.555570 0.720074 0.215200 0.555570 0.803138 0.000000 0.555570 0.831470 -0.215200 0.555570 0.803138 -0.415735 0.555570 0.720074 -0.587938 0.555570 0.587938 -0.720074 0.555570 0.415735 -0.803138 0.555570 0.215200 -0.831470 0.555570 0.000000 -0.803138 0.555570 -0.215200 -0.720074 0.555570 -0.415735 -0.587938 0.555570 -0.587938 -0.415735 0.555570 -0.720074 -0.215200 0.555570 -0.803138 -0.000000 0.555570 -0.831470 0.215200 0.555570 -0.803138 0.415735 0.555570 -0.720074 0.587938 0.555570 -0.587938 0.720074 0.555570 -0.415735 0.803138 0.555570 -0.215200 0.923880 0.382683 0.000000 0.892399 0.382683 0.239118 0.800103 0.382683 0.461940 0.653281 0.382683 0.653281 0.461940 0.382683 0.800103 0.239118 0.382683 0.892399 0.000000 0.382683 0.923880 -0.239118 0.382683 0.892399 -0.461940 0.382683 0.800103 -0.653281 0.382683 0.653281 -0.800103 0.382683 0.461940 -0.892399 0.382683 0.239118 -0.923880 0.382683 0.000000 -0.892399 0.382683 -0.239118 -0.800103 0.382683 -0.461940 -0.653281 0.382683 -0.653281 -0.461940 0.382683 -0.800103 -0.239118 0.382683 -0.892399 -0.000000 0.382683 -0.923880 0.239118 0.382683 -0.892399 0.461940 0.382683 -0.800103 0.653281 0.382683 -0.653281 0.800103 0.382683 -0.461940 0.892399 0.382683 -0.239118 0.980785 0.195090 0.000000 0.947366 0.195090 0.253846 0.849385 0.195090 0.490393 0.693520 0.195090 0.693520 0.490393 0.195090 0.849385 0.253846 0.195090 0.947366 0.000000 0.195090 0.980785 -0.253846 0.195090 0.947366 -0.490393 0.195090 0.849385 -0.693520 0.195090 0.693520 -0.849385 0.195090 0.490393 -0.947366 0.195090 0.253846 -0.980785 0.195090 0.000000 -0.947366 0.195090 -0.253846 -0.849385 0.195090 -0.490393 -0.693520 0.195090 -0.693520 -0.490393 0.195090 -0.849385 -0.253846 0.195090 -0.947366 -0.000000 0.195090 -0.980785 0.253846 0.195090 -0.947366 0.490393 0.195090 -0.849385 0.693520 0.195090 -0.693520 0.849385 0.195090 -0.490393 0.947366 0.195090 -0.253846 1.000000 0.000000 0.000000 0.965926 0.000000 0.258819 0.866025 0.000000 0.500000 0.707107 0.000000 0.707107 0.500000 0.000000 0.866025 0.258819 0.000000 0.965926 0.000000 0.000000 1.000000 -0.258819 0.000000 0.965926 -0.500000 0.000000 0.866025 -0.707107 0.000000 0.707107 -0.866025 0.000000 0.500000 -0.965926 0.000000 0.258819 -1.000000 0.000000 0.000000 -0.965926 0.000000 -0.258819 -0.866025 0.000000 -0.500000 -0.707107 0.000000 -0.707107 -0.500000 0.000000 -0.866025 -0.258819 0.000000 -0.965926 -0.000000 0.000000 -1.000000 0.258819 0.000000 -0.965926 0.500000 0.000000 -0.866025 0.707107 0.000000 -0.707107 0.866025 0.000000 -0.500000 0.965926 0.000000 -0.258819 0.980785 -0.195090 0.000000 0.947366 -0.195090 0.253846 0.849385 -0.195090 0.490393 0.693520 -0.195090 0.693520 0.490393 -0.195090 0.849385 0.253846 -0.195090 0.947366 0.000000 -0.195090 0.980785 -0.253846 -0.195090 0.947366 -0.490393 -0.195090 0.849385 -0.693520 -0.195090 0.693520 -0.849385 -0.195090 0.490393 -0.947366 -0.195090 0.253846 -0.980785 -0.195090 0.000000 -0.947366 -0.195090 -0.253846 -0.849385 -0.195090 -0.490393 -0.693520 -0.195090 -0.693520 -0.490393 -0.195090 -0.849385 -0.253846 -0.195090 -0.947366 -0.000000 -0.195090 -0.980785 0.253846 -0.195090 -0.947366 0.490393 -0.195090 -0.849385 0.693520 -0.195090 -0.693520 0.849385 -0.195090 -0.490393 0.947366 -0.195090 -0.253846 0.923880 -0.382683 0.000000 0.892399 -0.382683 0.239118 0.800103 -0.382683 0.461940 0.653281 -0.382683 0.653281 0.461940 -0.382683 0.800103 0.239118 -0.382683 0.892399 0.000000 -0.382683 0.923880 -0.239118 -0.382683 0.892399 -0.461940 -0.382683 0.800103 -0.653281 -0.382683 0.653281 -0.800103 -0.382683 0.461940 -0.892399 -0.382683 0.239118 -0.923880 -0.382683 0.000000 -0.892399 -0.382683 -0.239118 -0.800103 -0.382683 -0.461940 -0.653281 -0.382683 -0.653281 -0.461940 -0.382683 -0.800103 -0.239118 -0.382683 -0.892399 -0.000000 -0.382683 -0.923880 0.239118 -0.382683 -0.892399 0.461940 -0.382683 -0.800103 0.653281 -0.382683 -0.653281 0.800103 -0.382683 -0.461940 0.892399 -0.382683 -0.239118 0.831470 -0.555570 0.000000 0.803138 -0.555570 0.215200 0.720074 -0.555570 0.415735 0.587938 -0.555570 0.587938 0.415735 -0.555570 0.720074 0.215200 -0.555570 0.803138 0.000000 -0.555570 0.831470 -0.215200 -0.555570 0.803138 -0.415735 -0.555570 0.720074 -0.587938 -0.555570 0.587938 -0.720074 -0.555570 0.415735 -0.803138 -0.555570 0.215200 -0.831470 -0.555570 0.000000 -0.803138 -0.555570 -0.215200 -0.720074 -0.555570 -0.415735 -0.587938 -0.555570 -0.587938 -0.415735 -0.555570 -0.720074 -0.215200 -0.555570 -0.803138 -0.000000 -0.555570 -0.831470 0.215200 -0.555570 -0.803138 0.415735 -0.555570 -0.720074 0.587938 -0.555570 -0.587938 0.720074 -0.555570 -0.415735 0.803138 -0.555570 -0.215200 0.707107 -0.707107 0.000000 0.683013 -0.707107 0.183013 0.612372 -0.707107 0.353553 0.500000 -0.707107 0.500000 0.353553 -0.707107 0.612372 0.183013 -0.707107 0.683013 0.000000 -0.707107 0.707107 -0.183013 -0.707107 0.683013 -0.353553 -0.707107 0.612372 -0.500000 -0.707107 0.500000 -0.612372 -0.707107 0.353553 -0.683013 -0.707107 0.183013 -0.707107 -0.707107 0.000000 -0.683013 -0.707107 -0.183013 -0.612372 -0.707107 -0.353553 -0.500000 -0.707107 -0.500000 -0.353553 -0.707107 -0.612372 -0.183013 -0.707107 -0.683013 -0.000000 -0.707107 -0.707107 0.183013 -0.707107 -0.683013 0.353553 -0.707107 -0.612372 0.500000 -0.707107 -0.500000 0.612372 -0.707107 -0.353553 0.683013 -0.707107 -0.183013 0.555570 -0.831470 0.000000 0.536640 -0.831470 0.143792 0.481138 -0.831470 0.277785 0.392847 -0.831470 0.392847 0.277785 -0.831470 0.481138 0.143792 -0.831470 0.536640 0.000000 -0.831470 0.555570 -0.143792 -0.831470 0.536640 -0.277785 -0.831470 0.481138 -0.392847 -0.831470 0.392847 -0.481138 -0.831470 0.277785 -0.536640 -0.831470 0.143792 -0.555570 -0.831470 0.000000 -0.536640 -0.831470 -0.143792 -0.481138 -0.831470 -0.277785 -0.392847 -0.831470 -0.392847 -0.277785 -0.831470 -0.481138 -0.143792 -0.831470 -0.536640 -0.000000 -0.831470 -0.555570 0.143792 -0.831470 -0.536640 0.277785 -0.831470 -0.481138 0.392847 -0.831470 -0.392847 0.481138 -0.831470 -0.277785 0.536640 -0.831470 -0.143792 0.382683 -0.923880 0.000000 0.369644 -0.923880 0.099046 0.331414 -0.923880 0.191342 0.270598 -0.923880 0.270598 0.191342 -0.923880 0.331414 0.099046 -0.923880 0.369644 0.000000 -0.923880 0.382683 -0.099046 -0.923880 0.369644 -0.191342 -0.923880 0.331414 -0.270598 -0.923880 0.270598 -0.331414 -0.923880 0.191342 -0.369644 -0.923880 0.099046 -0.382683 -0.923880 0.000000 -0.369644 -0.923880 -0.099046 -0.331414 -0.923880 -0.191342 -0.270598 -0.923880 -0.270598 -0.191342 -0.923880 -0.331414 -0.099046 -0.923880 -0.369644 -0.000000 -0.923880 -0.382683 0.099046 -0.923880 -0.369644 0.191342 -0.923880 -0.331414 0.270598 -0.923880 -0.270598 0.331414 -0.923880 -0.191342 0.369644 -0.923880 -0.099046 0.195090 -0.980785 0.000000 0.188443 -0.980785 0.050493 0.168953 -0.980785 0.097545 0.137950 -0.980785 0.137950 0.097545 -0.980785 0.168953 0.050493 -0.980785 0.188443 0.000000 -0.980785 0.195090 -0.050493 -0.980785 0.188443 -0.097545 -0.980785 0.168953 -0.137950 -0.980785 0.137950 -0.168953 -0.980785 0.097545 -0.188443 -0.980785 0.050493 -0.195090 -0.980785 0.000000 -0.188443 -0.980785 -0.050493 -0.168953 -0.980785 -0.097545 -0.137950 -0.980785 -0.137950 -0.097545 -0.980785 -0.168953 -0.050493 -0.980785 -0.188443 -0.000000 -0.980785 -0.195090 0.050493 -0.980785 -0.188443 0.097545 -0.980785 -0.168953 0.137950 -0.980785 -0.137950 0.168953 -0.980785 -0.097545 0.188443 -0.980785 -0.050493 0.000000 -1.000000 0.000000 0.000000 -1.000000 0.000000 0.000000 -1.000000 0.000000 0.000000 -1.000000 0.000000 0.000000 -1.000000 0.000000 0.000000 -1.000000 0.000000 0.000000 -1.000000 0.000000 -0.000000 -1.000000 0.000000 -0.000000 -1.000000 0.000000 -0.000000 -1.000000 0.000000 -0.000000 -1.000000 0.000000 -0.000000 -1.000000 0.000000 -0.000000 -1.000000 0.000000 -0.000000 -1.000000 -0.000000 -0.000000 -1.000000 -0.000000 -0.000000 -1.000000 -0.000000 -0.000000 -1.000000 -0.000000 -0.000000 -1.000000 -0.000000 -0.000000 -1.000000 -0.000000 0.000000 -1.000000 -0.000000 0.000000 -1.000000 -0.000000 0.000000 -1.000000 -0.000000 0.000000 -1.000000 -0.000000 0.000000 -1.000000 -0.000000</float_array>
          <technique_common>
            <accessor source="#vhead-mesh-normals-array" count="408" stride="3">
              <param name="X" type="float"/>
              <param name="Y" type="float"/>
              <param name="Z" type="float"/>
            </accessor>
          </technique_common>
        </source>
        <vertices id="vhead-mesh-vertices">
          <input semantic="POSITION" source="#vhead-mesh-positions"/>
        </vertices>
        <triangles material="Material_001-material" count="768">
          <input semantic="VERTEX" source="#vhead-mesh-vertices" offset="0"/>
          <input semantic="NORMAL" source="#vhead-mesh-normals" offset="1"/>
          <p>0 0 24 24 1 1 1 1 24 24 25 25 1 1 25 25 2 2 2 2 25 25 26 26 2 2 26 26 3 3 3 3 26 26 27 27 3 3 27 27 4 4 4 4 27 27 28 28 4 4 28 28 5 5 5 5 28 28 29 29 5 5 29 29 6 6 6 6 29 29 30 30 6 6 30 30 7 7 7 7 30 30 31 31 7 7 31 31 8 8 8 8 31 31 32 32 8 8 32 32 9 9 9 9 32 32 33 33 9 9 33 33 10 10 10 10 33 33 34 34 10 10 34 34 11 11 11 11 34 34 35 35 11 11 35 35 12 12 12 12 35 35 36 36 12 12 36 36 13 13 13 13 36 36 37 37 13 13 37 37 14 14 14 14 37 37 38 38 14 14 38 38 15 15 15 15 38 38 39 39 15 15 39 39 16 16 16 16 39 39 40 40 16 16 40 40 17 17 17 17 40 40 41 41 17 17 41 41 18 18 18 18 41 41 42 42 18 18 42 42 19 19 19 19 42 42 43 43 19 19 43 43 20 20 20 20 43 43 44 44 20 20 44 44 21 21 21 21 44 44 45 45 21 21 45 45 22 22 22 22 45 45 46 46 22 22 46 46 23 23 23 23 46 46 47 47 23 23 47 47 0 0 0 0 47 47 24 24 24 24 48 48 25 25 25 25 48 48 49 49 25 25 49 49 26 26 26 26 49 49 50 50 26 26 50 50 27 27 27 27 50 50 51 51 27 27 51 51 28 28 28 28 51 51 52 52 28 28 52 52 29 29 29 29 52 52 53 53 29 29 53 53 30 30 30 30 53 53 54 54 30 30 54 54 31 31 31 31 54 54 55 55 31 31 55 55 32 32 32 32 55 55 56 56 32 32 56 56 33 33 33 33 56 56 57 57 33 33 57 57 34 34 34 34 57 57 58 58 34 34 58 58 35 35 35 35 58 58 59 59 35 35 59 59 36 36 36 36 59 59 60 60 36 36 60 60 37 37 37 37 60 60 61 61 37 37 61 61 38 38 38 38 61 61 62 62 38 38 62 62 39 39 39 39 62 62 63 63 39 39 63 63 40 40 40 40 63 63 64 64 40 40 64 64 41 41 41 41 64 64 65 65 41 41 65 65 42 42 42 42 65 65 66 66 42 42 66 66 43 43 43 43 66 66 67 67 43 43 67 67 44 44 44 44 67 67 68 68 44 44 68 68 45 45 45 45 68 68 69 69 45 45 69 69 46 46 46 46 69 69 70 70 46 46 70 70 47 47 47 47 70 70 71 71 47 47 71 71 24 24 24 24 71 71 48 48 48 48 72 72 49 49 49 49 72 72 73 73 49 49 73 73 50 50 50 50 73 73 74 74 50 50 74 74 51 51 51 51 74 74 75 75 51 51 75 75 52 52 52 52 75 75 76 76 52 52 76 76 53 53 53 53 76 76 77 77 53 53 77 77 54 54 54 54 77 77 78 78 54 54 78 78 55 55 55 55 78 78 79 79 55 55 79 79 56 56 56 56 79 79 80 80 56 56 80 80 57 57 57 57 80 80 81 81 57 57 81 81 58 58 58 58 81 81 82 82 58 58 82 82 59 59 59 59 82 82 83 83 59 59 83 83 60 60 60 60 83 83 84 84 60 60 84 84 61 61 61 61 84 84 85 85 61 61 85 85 62 62 62 62 85 85 86 86 62 62 86 86 63 63 63 63 86 86 87 87 63 63 87 87 64 64 64 64 87 87 88 88 64 64 88 88 65 65 65 65 88 88 89 89 65 65 89 89 66 66 66 66 89 89 90 90 66 66 90 90 67 67 67 67 90 90 91 91 67 67 91 91 68 68 68 68 91 91 92 92 68 68 92 92 69 69 69 69 92 92 93 93 69 69 93 93 70 70 70 70 93 93 94 94 70 70 94 94 71 71 71 71 94 94 95 95 71 71 95 95 48 48 48 48 95 95 72 72 72 72 96 96 73 73 73 73 96 96 97 97 73 73 97 97 74 74 74 74 97 97 98 98 74 74 98 98 75 75 75 75 98 98 99 99 75 75 99 99 76 76 76 76 99 99 100 100 76 76 100 100 77 77 77 77 100 100 101 101 77 77 101 101 78 78 78 78 101 101 102 102 78 78 102 102 79 79 79 79 102 102 103 103 79 79 103 103 80 80 80 80 103 103 104 104 80 80 104 104 81 81 81 81 104 104 105 105 81 81 105 105 82 82 82 82 105 105 106 106 82 82 106 106 83 83 83 83 106 106 107 107 83 83 107 107 84 84 84 84 107 107 108 108 84 84 108 108 85 85 85 85 108 108 109 109 85 85 109 109 86 86 86 86 109 109 110 110 86 86 110 110 87 87 87 87 110 110 111 111 87 87 111 111 88 88 88 88 111 111 112 112 88 88 112 112 89 89 89 89 112 112 113 113 89 89 113 113 90 90 90 90 113 113 114 114 90 90 114 114 91 91 91 91 114 114 115 115 91 91 115 115 92 92 92 92 115 115 116 116 92 92 116 116 93 93 93 93 116 116 117 117 93 93 117 117 94 94 94 94 117 117 118 118 94 94 118 118 95 95 95 95 118 118 119 119 95 95 119 119 72 72 72 72 119 119 96 96 96 96 120 120 97 97 97 97 120 120 121 121 97 97 121 121 98 98 98 98 121 121 122 122 98 98 122 122 99 99 99 99 122 122 123 123 99 99 123 123 100 100 100 100 123 123 124 124 100 100 124 124 101 101 101 101 124 124 125 125 101 101 125 125 102 102 102 102 125 125 126 126 102 102 126 126 103 103 103 103 126 126 127 127 103 103 127 127 104 104 104 104 127 127 128 128 104 104 128 128 105 105 105 105 128 128 129 129 105 105 129 129 106 106 106 106 129 129 130 130 106 106 130 130 107 107 107 107 130 130 131 131 107 107 131 131 108 108 108 108 131 131 132 132 108 108 132 132 109 109 109 109 132 132 133 133 109 109 133 133 110 110 110 110 133 133 134 134 110 110 134 134 111 111 111 111 134 134 135 135 111 111 135 135 112 112 112 112 135 135 136 136 112 112 136 136 113 113 113 113 136 136 137 137 113 113 137 137 114 114 114 114 137 137 138 138 114 114 138 138 115 115 115 115 138 138 139 139 115 115 139 139 116 116 116 116 139 139 140 140 116 116 140 140 117 117 117 117 140 140 141 141 117 117 141 141 118 118 118 118 141 141 142 142 118 118 142 142 119 119 119 119 142 142 143 143 119 119 143 143 96 96 96 96 143 143 120 120 120 120 144 144 121 121 121 121 144 144 145 145 121 121 145 145 122 122 122 122 145 145 146 146 122 122 146 146 123 123 123 123 146 146 147 147 123 123 147 147 124 124 124 124 147 147 148 148 124 124 148 148 125 125 125 125 148 148 149 149 125 125 149 149 126 126 126 126 149 149 150 150 126 126 150 150 127 127 127 127 150 150 151 151 127 127 151 151 128 128 128 128 151 151 152 152 128 128 152 152 129 129 129 129 152 152 153 153 129 129 153 153 130 130 130 130 153 153 154 154 130 130 154 154 131 131 131 131 154 154 155 155 131 131 155 155 132 132 132 132 155 155 156 156 132 132 156 156 133 133 133 133 156 156 157 157 133 133 157 157 134 134 134 134 157 157 158 158 134 134 158 158 135 135 135 135 158 158 159 159 135 135 159 159 136 136 136 136 159 159 160 160 136 136 160 160 137 137 137 137 160 160 161 161 137 137 161 161 138 138 138 138 161 161 162 162 138 138 162 162 139 139 139 139 162 162 163 163 139 139 163 163 140 140 140 140 163 163 164 164 140 140 164 164 141 141 141 141 164 164 165 165 141 141 165 165 142 142 142 142 165 165 166 166 142 142 166 166 143 143 143 143 166 166 167 167 143 143 167 167 120 120 120 120 167 167 144 144 144 144 168 168 145 145 145 145 168 168 169 169 145 145 169 169 146 146 146 146 169 169 170 170 146 146 170 170 147 147 147 147 170 170 171 171 147 147 171 171 148 148 148 148 171 171 172 172 148 148 172 172 149 149 149 149 172 172 173 173 149 149 173 173 150 150 150 150 173 173 174 174 150 150 174 174 151 151 151 151 174 174 175 175 151 151 175 175 152 152 152 152 175 175 176 176 152 152 176 176 153 153 153 153 176 176 177 177 153 153 177 177 154 154 154 154 177 177 178 178 154 154 178 178 155 155 155 155 178 178 179 179 155 155 179 179 156 156 156 156 179 179 180 180 156 156 180 180 157 157 157 157 180 180 181 181 157 157 181 181 158 158 158 158 181 181 182 182 158 158 182 182 159 159 159 159 182 182 183 183 159 159 183 183 160 160 160 160 183 183 184 184 160 160 184 184 161 161 161 161 184 184 185 185 161 161 185 185 162 162 162 162 185 185 186 186 162 162 186 186 163 163 163 163 186 186 187 187 163 163 187 187 164 164 164 164 187 187 188 188 164 164 188 188 165 165 165 165 188 188 189 189 165 165 189 189 166 166 166 166 189 189 190 190 166 166 190 190 167 167 167 167 190 190 191 191 167 167 191 191 144 144 144 144 191 191 168 168 168 168 192 192 169 169 169 169 192 192 193 193 169 169 193 193 170 170 170 170 193 193 194 194 170 170 194 194 171 171 171 171 194 194 195 195 171 171 195 195 172 172 172 172 195 195 196 196 172 172 196 196 173 173 173 173 196 196 197 197 173 173 197 197 174 174 174 174 197 197 198 198 174 174 198 198 175 175 175 175 198 198 199 199 175 175 199 199 176 176 176 176 199 199 200 200 176 176 200 200 177 177 177 177 200 200 201 201 177 177 201 201 178 178 178 178 201 201 202 202 178 178 202 202 179 179 179 179 202 202 203 203 179 179 203 203 180 180 180 180 203 203 204 204 180 180 204 204 181 181 181 181 204 204 205 205 181 181 205 205 182 182 182 182 205 205 206 206 182 182 206 206 183 183 183 183 206 206 207 207 183 183 207 207 184 184 184 184 207 207 208 208 184 184 208 208 185 185 185 185 208 208 209 209 185 185 209 209 186 186 186 186 209 209 210 210 186 186 210 210 187 187 187 187 210 210 211 211 187 187 211 211 188 188 188 188 211 211 212 212 188 188 212 212 189 189 189 189 212 212 213 213 189 189 213 213 190 190 190 190 213 213 214 214 190 190 214 214 191 191 191 191 214 214 215 215 191 191 215 215 168 168 168 168 215 215 192 192 192 192 216 216 193 193 193 193 216 216 217 217 193 193 217 217 194 194 194 194 217 217 218 218 194 194 218 218 195 195 195 195 218 218 219 219 195 195 219 219 196 196 196 196 219 219 220 220 196 196 220 220 197 197 197 197 220 220 221 221 197 197 221 221 198 198 198 198 221 221 222 222 198 198 222 222 199 199 199 199 222 222 223 223 199 199 223 223 200 200 200 200 223 223 224 224 200 200 224 224 201 201 201 201 224 224 225 225 201 201 225 225 202 202 202 202 225 225 226 226 202 202 226 226 203 203 203 203 226 226 227 227 203 203 227 227 204 204 204 204 227 227 228 228 204 204 228 228 205 205 205 205 228 228 229 229 205 205 229 229 206 206 206 206 229 229 230 230 206 206 230 230 207 207 207 207 230 230 231 231 207 207 231 231 208 208 208 208 231 231 232 232 208 208 232 232 209 209 209 209 232 232 233 233 209 209 233 233 210 210 210 210 233 233 234 234 210 210 234 234 211 211 211 211 234 234 235 235 211 211 235 235 212 212 212 212 235 235 236 236 212 212 236 236 213 213 213 213 236 236 237 237 213 213 237 237 214 214 214 214 237 237 238 238 214 214 238 238 215 215 215 215 238 238 239 239 215 215 239 239 192 192 192 192 239 239 216 216 216 216 240 240 217 217 217 217 240 240 241 241 217 217 241 241 218 218 218 218 241 241 242 242 218 218 242 242 219 219 219 219 242 242 243 243 219 219 243 243 220 220 220 220 243 243 244 244 220 220 244 244 221 221 221 221 244 244 245 245 221 221 245 245 222 222 222 222 245 245 246 246 222 222 246 246 223 223 223 223 246 246 247 247 223 223 247 247 224 224 224 224 247 247 248 248 224 224 248 248 225 225 225 225 248 248 249 249 225 225 249 249 226 226 226 226 249 249 250 250 226 226 250 250 227 227 227 227 250 250 251 251 227 227 251 251 228 228 228 228 251 251 252 252 228 228 252 252 229 229 229 229 252 252 253 253 229 229 253 253 230 230 230 230 253 253 254 254 230 230 254 254 231 231 231 231 254 254 255 255 231 231 255 255 232 232 232 232 255 255 256 256 232 232 256 256 233 233 233 233 256 256 257 257 233 233 257 257 234 234 234 234 257 257 258 258 234 234 258 258 235 235 235 235 258 258 259 259 235 235 259 259 236 236 236 236 259 259 260 260 236 236 260 260 237 237 237 237 260 260 261 261 237 237 261 261 238 238 238 238 261 261 262 262 238 238 262 262 239 239 239 239 262 262 263 263 239 239 263 263 216 216 216 216 263 263 240 240 240 240 264 264 241 241 241 241 264 264 265 265 241 241 265 265 242 242 242 242 265 265 266 266 242 242 266 266 243 243 243 243 266 266 267 267 243 243 267 267 244 244 244 244 267 267 268 268 244 244 268 268 245 245 245 245 268 268 269 269 245 245 269 269 246 246 246 246 269 269 270 270 246 246 270 270 247 247 247 247 270 270 271 271 247 247 271 271 248 248 248 248 271 271 272 272 248 248 272 272 249 249 249 249 272 272 273 273 249 249 273 273 250 250 250 250 273 273 274 274 250 250 274 274 251 251 251 251 274 274 275 275 251 251 275 275 252 252 252 252 275 275 276 276 252 252 276 276 253 253 253 253 276 276 277 277 253 253 277 277 254 254 254 254 277 277 278 278 254 254 278 278 255 255 255 255 278 278 279 279 255 255 279 279 256 256 256 256 279 279 280 280 256 256 280 280 257 257 257 257 280 280 281 281 257 257 281 281 258 258 258 258 281 281 282 282 258 258 282 282 259 259 259 259 282 282 283 283 259 259 283 283 260 260 260 260 283 283 284 284 260 260 284 284 261 261 261 261 284 284 285 285 261 261 285 285 262 262 262 262 285 285 286 286 262 262 286 286 263 263 263 263 286 286 287 287 263 263 287 287 240 240 240 240 287 287 264 264 264 264 288 288 265 265 265 265 288 288 289 289 265 265 289 289 266 266 266 266 289 289 290 290 266 266 290 290 267 267 267 267 290 290 291 291 267 267 291 291 268 268 268 268 291 291 292 292 268 268 292 292 269 269 269 269 292 292 293 293 269 269 293 293 270 270 270 270 293 293 294 294 270 270 294 294 271 271 271 271 294 294 295 295 271 271 295 295 272 272 272 272 295 295 296 296 272 272 296 296 273 273 273 273 296 296 297 297 273 273 297 297 274 274 274 274 297 297 298 298 274 274 298 298 275 275 275 275 298 298 299 299 275 275 299 299 276 276 276 276 299 299 300 300 276 276 300 300 277 277 277 277 300 300 301 301 277 277 301 301 278 278 278 278 301 301 302 302 278 278 302 302 279 279 279 279 302 302 303 303 279 279 303 303 280 280 280 280 303 303 304 304 280 280 304 304 281 281 281 281 304 304 305 305 281 281 305 305 282 282 282 282 305 305 306 306 282 282 306 306 283 283 283 283 306 306 307 307 283 283 307 307 284 284 284 284 307 307 308 308 284 284 308 308 285 285 285 285 308 308 309 309 285 285 309 309 286 286 286 286 309 309 310 310 286 286 310 310 287 287 287 287 310 310 311 311 287 287 311 311 264 264 264 264 311 311 288 288 288 288 312 312 289 289 289 289 312 312 313 313 289 289 313 313 290 290 290 290 313 313 314 314 290 290 314 314 291 291 291 291 314 314 315 315 291 291 315 315 292 292 292 292 315 315 316 316 292 292 316 316 293 293 293 293 316 316 317 317 293 293 317 317 294 294 294 294 317 317 318 318 294 294 318 318 295 295 295 295 318 318 319 319 295 295 319 319 296 296 296 296 319 319 320 320 296 296 320 320 297 297 297 297 320 320 321 321 297 297 321 321 298 298 298 298 321 321 322 322 298 298 322 322 299 299 299 299 322 322 323 323 299 299 323 323 300 300 300 300 323 323 324 324 300 300 324 324 301 301 301 301 324 324 325 325 301 301 325 325 302 302 302 302 325 325 326 326 302 302 326 326 303 303 303 303 326 326 327 327 303 303 327 327 304 304 304 304 327 327 328 328 304 304 328 328 305 305 305 305 328 328 329 329 305 305 329 329 306 306 306 306 329 329 330 330 306 306 330 330 307 307 307 307 330 330 331 331 307 307 331 331 308 308 308 308 331 331 332 332 308 308 332 332 309 309 309 309 332 332 333 333 309 309 333 333 310 310 310 310 333 333 334 334 310 310 334 334 311 311 311 311 334 334 335 335 311 311 335 335 288 288 288 288 335 335 312 312 312 312 336 336 313 313 313 313 336 336 337 337 313 313 337 337 314 314 314 314 337 337 338 338 314 314 338 338 315 315 315 315 338 338 339 339 315 315 339 339 316 316 316 316 339 339 340 340 316 316 340 340 317 317 317 317 340 340 341 341 317 317 341 341 318 318 318 318 341 341 342 342 318 318 342 342 319 319 319 319 342 342 343 343 319 319 343 343 320 320 320 320 343 343 344 344 320 320 344 344 321 321 321 321 344 344 345 345 321 321 345 345 322 322 322 322 345 345 346 346 322 322 346 346 323 323 323 323 346 346 347 347 323 323 347 347 324 324 324 324 347 347 348 348 324 324 348 348 325 325 325 325 348 348 349 349 325 325 349 349 326 326 326 326 349 349 350 350 326 326 350 350 327 327 327 327 350 350 351 351 327 327 351 351 328 328 328 328 351 351 352 352 328 328 352 352 329 329 329 329 352 352 353 353 329 329 353 353 330 330 330 330 353 353 354 354 330 330 354 354 331 331 331 331 354 354 355 355 331 331 355 355 332 332 332 332 355 355 356 356 332 332 356 356 333 333 333 333 356 356 357 357 333 333 357 357 334 334 334 334 357 357 358 358 334 334 358 358 335 335 335 335 358 358 359 359 335 335 359 359 312 312 312 312 359 359 336 336 336 336 360 360 337 337 337 337 360 360 361 361 337 337 361 361 338 338 338 338 361 361 362 362 338 338 362 362 339 339 339 339 362 362 363 363 339 339 363 363 340 340 340 340 363 363 364 364 340 340 364 364 341 341 341 341 364 364 365 365 341 341 365 365 342 342 342 342 365 365 366 366 342 342 366 366 343 343 343 343 366 366 367 367 343 343 367 367 344 344 344 344 367 367 368 368 344 344 368 368 345 345 345 345 368 368 369 369 345 345 369 369 346 346 346 346 369 369 370 370 346 346 370 370 347 347 347 347 370 370 371 371 347 347 371 371 348 348 348 348 371 371 372 372 348 348 372 372 349 349 349 349 372 372 373 373 349 349 373 373 350 350 350 350 373 373 374 374 350 350 374 374 351 351 351 351 374 374 375 375 351 351 375 375 352 352 352 352 375 375 376 376 352 352 376 376 353 353 353 353 376 376 377 377 353 353 377 377 354 354 354 354 377 377 378 378 354 354 378 378 355 355 355 355 378 378 379 379 355 355 379 379 356 356 356 356 379 379 380 380 356 356 380 380 357 357 357 357 380 380 381 381 357 357 381 381 358 358 358 358 381 381 382 382 358 358 382 382 359 359 359 359 382 382 383 383 359 359 383 383 336 336 336 336 383 383 360 360 360 360 384 384 361 361 361 361 384 384 385 385 361 361 385 385 362 362 362 362 385 385 386 386 362 362 386 386 363 363 363 363 386 386 387 387 363 363 387 387 364 364 364 364 387 387 388 388 364 364 388 388 365 365 365 365 388 388 389 389 365 365 389 389 366 366 366 366 389 389 390 390 366 366 390 390 367 367 367 367 390 390 391 391 367 367 391 391 368 368 368 368 391 391 392 392 368 368 392 392 369 369 369 369 392 392 393 393 369 369 393 393 370 370 370 370 393 393 394 394 370 370 394 394 371 371 371 371 394 394 395 395 371 371 395 395 372 372 372 372 395 395 396 396 372 372 396 396 373 373 373 373 396 396 397 397 373 373 397 397 374 374 374 374 397 397 398 398 374 374 398 398 375 375 375 375 398 398 399 399 375 375 399 399 376 376 376 376 399 399 400 400 376 376 400 400 377 377 377 377 400 400 401 401 377 377 401 401 378 378 378 378 401 401 402 402 378 378 402 402 379 379 379 379 402 402 403 403 379 379 403 403 380 380 380 380 403 403 404 404 380 380 404 404 381 381 381 381 404 404 405 405 381 381 405 405 382 382 382 382 405 405 406 406 382 382 406 406 383 383 383 383 406 406 407 407 383 383 407 407 360 360 360 360 407 407 384 384</p>
        </triangles>
      </mesh>
    </geometry>
    <geometry id="varm-mesh" name="varm">
      <mesh>
        <source id="varm-mesh-positions">
          <float_array id="varm-mesh-positions-array" count="216">-0.120000 0.080000 -0.010000 -0.120000 0.080000 0.010000 -0.100000 0.080000 0.010000 -0.100000 0.080000 -0.010000 -0.120000 -0.080000 0.010000 -0.120000 -0.080000 -0.010000 -0.100000 -0.080000 -0.010000 -0.100000 -0.080000 0.010000 -0.120000 -0.080000 0.010000 -0.100000 -0.080000 0.010000 -0.100000 0.080000 0.010000 -0.120000 0.080000 0.010000 -0.100000 -0.080000 -0.010000 -0.120000 -0.080000 -0.010000 -0.120000 0.080000 -0.010000 -0.100000 0.080000 -0.010000 -0.100000 -0.080000 0.010000 -0.100000 -0.080000 -0.010000 -0.100000 0.080000 -0.010000 -0.100000 0.080000 0.010000 -0.120000 -0.080000 -0.010000 -0.120000 -0.080000 0.010000 -0.120000 0.080000 0.010000 -0.120000 0.080000 -0.010000 0.100000 0.080000 -0.010000 0.100000 0.080000 0.010000 0.120000 0.080000 0.010000 0.120000 0.080000 -0.010000 0.100000 -0.080000 0.010000 0.100000 -0.080000 -0.010000 0.120000 -0.080000 -0.010000 0.120000 -0.080000 0.010000 0.100000 -0.080000 0.010000 0.120000 -0.080000 0.010000 0.120000 0.080000 0.010000 0.100000 0.080000 0.010000 0.120000 -0.080000 -0.010000 0.100000 -0.080000 -0.010000 0.100000 0.080000 -0.010000 0.120000 0.080000 -0.010000 0.120000 -0.080000 0.010000 0.120000 -0.080000 -0.010000 0.120000 0.080000 -0.010000 0.120000 0.080000 0.010000 0.100000 -0.080000 -0.010000 0.100000 -0.080000 0.010000 0.100000 0.080000 0.010000 0.100000 0.080000 -0.010000 -0.120000 0.090000 -0.010000 -0.120000 0.090000 0.010000 0.120000 0.090000 0.010000 0.120000 0.090000 -0.010000 -0.120000 0.070000 0.010000 -0.120000 0.070000 -0.010000 0.120000 0.070000 -0.010000 0.120000 0.070000 0.010000 -0.120000 0.070000 0.010000 0.120000 0.070000 0.010000 0.120000 0.090000 0.010000 -0.120000 0.090000 0.010000 0.120000 0.070000 -0.010000 -0.120000 0.070000 -0.010000 -0.120000 0.090000 -0.010000 0.120000 0.090000 -0.010000 0.120000 0.070000 0.010000 0.120000 0.070000 -0.010000 0.120000 0.090000 -0.010000 0.120000 0.090000 0.010000 -0.120000 0.070000 -0.010000 -0.120000 0.070000 0.010000 -0.120000 0.090000 0.010000 -0.120000 0.090000 -0.010000</float_array>
          <technique_common>
            <accessor source="#varm-mesh-positions-array" count="72" stride="3">
              <param name="X" type="float"/>
              <param name="Y" type="float"/>
              <param name="Z" type="float"/>
            </accessor>
          </technique_common>
        </source>
        <source id="varm-mesh-normals">
          <float_array id="varm-mesh-normals-array" count="216">0.000000 1.000000 0.000000 0.000000 1.000000 0.000000 0.000000 1.000000 0.000000 0.000000 1.000000 0.000000 0.000000 -1.000000 0.000000 0.000000 -1.000000 0.000000 0.000000 -1.000000 0.000000 0.000000 -1.000000 0.000000 0.000000 0.000000 1.000000 0.000000 0.000000 1.000000 0.000000 0.000000 1.000000 0.000000 0.000000 1.000000 0.000000 0.000000 -1.000000 0.000000 0.000000 -1.000000 0.000000 0.000000 -1.000000 0.000000 0.000000 -1.000000 1.000000 0.000000 0.000000 1.000000 0.000000 0.000000 1.000000 0.000000 0.000000 1.000000 0.000000 0.000000 -1.000000 0.000000 0.000000 -1.000000 0.000000 0.000000 -1.000000 0.000000 0.000000 -1.000000 0.000000 0.000000 0.000000 1.000000 0.000000 0.000000 1.000000 0.000000 0.000000 1.000000 0.000000 0.000000 1.000000 0.000000 0.000000 -1.000000 0.000000 0.000000 -1.000000 0.000000 0.000000 -1.000000 0.000000 0.000000 -1.000000 0.000000 0.000000 0.000000 1.000000 0.000000 0.000000 1.000000 0.000000 0.000000 1.000000 0.000000 0.000000 1.000000 0.000000 0.000000 -1.000000 0.000000 0.000000 -1.000000 0.000000 0.000000 -1.000000 0.000000 0.000000 -1.000000 1.000000 0.000000 0.000000 1.000000 0.000000 0.000000 1.000000 0.000000 0.000000 1.000000 0.000000 0.000000 -1.000000 0.000000 0.000000 -1.000000 0.000000 0.000000 -1.000000 0.000000 0.000000 -1.000000 0.000000 0.000000 0.000000 1.000000 0.000000 0.000000 1.000000 0.000000 0.000000 1.000000 0.000000 0.000000 1.000000 0.000000 0.000000 -1.000000 0.000000 0.000000 -1.000000 0.000000 0.000000 -1.000000 0.000000 0.000000 -1.000000 0.000000 0.000000 0.000000 1.000000 0.000000 0.000000 1.000000 0.000000 0.000000 1.000000 0.000000 0.000000 1.000000 0.000000 0.000000 -1.000000 0.000000 0.000000 -1.000000 0.000000 0.000000 -1.000000 0.000000 0.000000 -1.000000 1.000000 0.000000 0.000000 1.000000 0.000000 0.000000 1.000000 0.000000 0.000000 1.000000 0.000000 0.000000 -1.000000 0.000000 0.000000 -1.000000 0.000000 0.000000 -1.000000 0.000000 0.000000 -1.000000 0.000000 0.000000</float_array>
          <technique_common>
            <accessor source="#varm-mesh-normals-array" count="72" stride="3">
              <param name="X" type="float"/>
              <param name="Y" type="float"/>
              <param name="Z" type="float"/>
            </accessor>
          </technique_common>
        </source>
        <vertices id="varm-mesh-vertices">
          <input semantic="POSITION" source="#varm-mesh-positions"/>
        </vertices>
        <triangles material="Material_001-material" count="36">
          <input semantic="VERTEX" source="#varm-mesh-vertices" offset="0"/>
          <input semantic="NORMAL" source="#varm-mesh-normals" offset="1"/>
          <p>0 0 1 1 2 2 0 0 2 2 3 3 4 4 5 5 6 6 4 4 6 6 7 7 8 8 9 9 10 10 8 8 10 10 11 11 12 12 13 13 14 14 12 12 14 14 15 15 16 16 17 17 18 18 16 16 18 18 19 19 20 20 21 21 22 22 20 20 22 22 23 23 24 24 25 25 26 26 24 24 26 26 27 27 28 28 29 29 30 30 28 28 30 30 31 31 32 32 33 33 34 34 32 32 34 34 35 35 36 36 37 37 38 38 36 36 38 38 39 39 40 40 41 41 42 42 40 40 42 42 43 43 44 44 45 45 46 46 44 44 46 46 47 47 48 48 49 49 50 50 48 48 50 50 51 51 52 52 53 53 54 54 52 52 54 54 55 55 56 56 57 57 58 58 56 56 58 58 59 59 60 60 61 61 62 62 60 60 62 62 63 63 64 64 65 65 66 66 64 64 66 66 67 67 68 68 69 69 70 70 68 68 70 70 71 71</p>
        </triangles>
      </mesh>
    </geometry>
    <geometry id="vbase-mesh" name="vbase">
      <mesh>
        <source id="vbase-mesh-positions">
          <float_array id="vbase-mesh-positions-array" count="294">0.000000 0.000000 0.000000 0.120000 0.000000 0.000000 0.115911 0.000000 0.031058 0.103923 0.000000 0.060000 0.084853 0.000000 0.084853 0.060000 0.000000 0.103923 0.031058 0.000000 0.115911 0.000000 0.000000 0.120000 -0.031058 0.000000 0.115911 -0.060000 0.000000 0.103923 -0.084853 0.000000 0.084853 -0.103923 0.000000 0.060000 -0.115911 0.000000 0.031058 -0.120000 0.000000 0.000000 -0.115911 0.000000 -0.031058 -0.103923 0.000000 -0.060000 -0.084853 0.000000 -0.084853 -0.060000 0.000000 -0.103923 -0.031058 0.000000 -0.115911 -0.000000 0.000000 -0.120000 0.031058 0.000000 -0.115911 0.060000 0.000000 -0.103923 0.084853 0.000000 -0.084853 0.103923 0.000000 -0.060000 0.115911 0.000000 -0.031058 0.000000 -0.040000 0.000000 0.120000 -0.040000 0.000000 0.115911 -0.040000 0.031058 0.103923 -0.040000 0.060000 0.084853 -0.040000 0.084853 0.060000 -0.040000 0.103923 0.031058 -0.040000 0.115911 0.000000 -0.040000 0.120000 -0.031058 -0.040000 0.115911 -0.060000 -0.040000 0.103923 -0.084853 -0.040000 0.084853 -0.103923 -0.040000 0.060000 -0.115911 -0.040000 0.031058 -0.120000 -0.040000 0.000000 -0.115911 -0.040000 -0.031058 -0.103923 -0.040000 -0.060000 -0.084853 -0.040000 -0.084853 -0.060000 -0.040000 -0.103923 -0.031058 -0.040000 -0.115911 -0.000000 -0.040000 -0.120000 0.031058 -0.040000 -0.115911 0.060000 -0.040000 -0.103923 0.084853 -0.040000 -0.084853 0.103923 -0.040000 -0.060000 0.115911 -0.040000 -0.031058 0.120000 0.000000 0.000000 0.115911 0.000000 0.031058 0.103923 0.000000 0.060000 0.084853 0.000000 0.084853 0.060000 0.000000 0.103923 0.031058 0.000000 0.115911 0.000000 0.000000 0.120000 -0.031058 0.000000 0.115911 -0.060000 0.000000 0.103923 -0.084853 0.000000 0.084853 -0.103923 0.000000 0.060000 -0.115911 0.000000 0.031058 -0.120000 0.000000 0.000000 -0.115911 0.000000 -0.031058 -0.103923 0.000000 -0.060000 -0.084853 0.000000 -0.084853 -0.060000 0.000000 -0.103923 -0.031058 0.000000 -0.115911 -0.000000 0.000000 -0.120000 0.031058 0.000000 -0.115911 0.060000 0.000000 -0.103923 0.084853 0.000000 -0.084853 0.103923 0.000000 -0.060000 0.115911 0.000000 -0.031058 0.120000 -0.040000 0.000000 0.115911 -0.040000 0.031058 0.103923 -0.040000 0.060000 0.084853 -0.040000 0.084853 0.060000 -0.040000 0.103923 0.031058 -0.040000 0.115911 0.000000 -0.040000 0.120000 -0.031058 -0.040000 0.115911 -0.060000 -0.040000 0.103923 -0.084853 -0.040000 0.084853 -0.103923 -0.040000 0.060000 -0.115911 -0.040000 0.031058 -0.120000 -0.040000 0.000000 -0.115911 -0.040000 -0.031058 -0.103923 -0.040000 -0.060000 -0.084853 -0.040000 -0.084853 -0.060000 -0.040000 -0.103923 -0.031058 -0.040000 -0.115911 -0.000000 -0.040000 -0.120000 0.031058 -0.040000 -0.115911 0.060000 -0.040000 -0.103923 0.084853 -0.040000 -0.084853 0.103923 -0.040000 -0.060000 0.115911 -0.040000 -0.031058</float_array>
          <technique_common>
            <accessor source="#vbase-mesh-positions-array" count="98" stride="3">
              <param name="X" type="float"/>
              <param name="Y" type="float"/>
              <param name="Z" type="float"/>
            </accessor>
          </technique_common>
        </source>
        <source id="vbase-mesh-normals">
          <float_array id="vbase-mesh-normals-array" count="294">0.000000 1.000000 0.000000 0.000000 1.000000 0.000000 0.000000 1.000000 0.000000 0.000000 1.000000 0.000000 0.000000 1.000000 0.000000 0.000000 1.000000 0.000000 0.000000 1.000000 0.000000 0.000000 1.000000 0.000000 0.000000 1.000000 0.000000 0.000000 1.000000 0.000000 0.000000 1.000000 0.000000 0.000000 1.000000 0.000000 0.000000 1.000000 0.000000 0.000000 1.000000 0.000000 0.000000 1.000000 0.000000 0.000000 1.000000 0.000000 0.000000 1.000000 0.000000 0.000000 1.000000 0.000000 0.000000 1.000000 0.000000 0.000000 1.000000 0.000000 0.000000 1.000000 0.000000 0.000000 1.000000 0.000000 0.000000 1.000000 0.000000 0.000000 1.000000 0.000000 0.000000 1.000000 0.000000 0.000000 -1.000000 0.000000 0.000000 -1.000000 0.000000 0.000000 -1.000000 0.000000 0.000000 -1.000000 0.000000 0.000000 -1.000000 0.000000 0.000000 -1.000000 0.000000 0.000000 -1.000000 0.000000 0.000000 -1.000000 0.000000 0.000000 -1.000000 0.000000 0.000000 -1.000000 0.000000 0.000000 -1.000000 0.000000 0.000000 -1.000000 0.000000 0.000000 -1.000000 0.000000 0.000000 -1.000000 0.000000 0.000000 -1.000000 0.000000 0.000000 -1.000000 0.000000 0.000000 -1.000000 0.000000 0.000000 -1.000000 0.000000 0.000000 -1.000000 0.000000 0.000000 -1.000000 0.000000 0.000000 -1.000000 0.000000 0.000000 -1.000000 0.000000 0.000000 -1.000000 0.000000 0.000000 -1.000000 0.000000 0.000000 -1.000000 0.000000 1.000000 0.000000 0.000000 0.965926 0.000000 0.258819 0.866025 0.000000 0.500000 0.707107 0.000000 0.707107 0.500000 0.000000 0.866025 0.258819 0.000000 0.965926 0.000000 0.000000 1.000000 -0.258819 0.000000 0.965926 -0.500000 0.000000 0.866025 -0.707107 0.000000 0.707107 -0.866025 0.000000 0.500000 -0.965926 0.000000 0.258819 -1.000000 0.000000 0.000000 -0.965926 0.000000 -0.258819 -0.866025 0.000000 -0.500000 -0.707107 0.000000 -0.707107 -0.500000 0.000000 -0.866025 -0.258819 0.000000 -0.965926 -0.000000 0.000000 -1.000000 0.258819 0.000000 -0.965926 0.500000 0.000000 -0.866025 0.707107 0.000000 -0.707107 0.866025 0.000000 -0.500000 0.965926 0.000000 -0.258819 1.000000 0.000000 0.000000 0.965926 0.000000 0.258819 0.866025 0.000000 0.500000 0.707107 0.000000 0.707107 0.500000 0.000000 0.866025 0.258819 0.000000 0.965926 0.000000 0.000000 1.000000 -0.258819 0.000000 0.965926 -0.500000 0.000000 0.866025 -0.707107 0.000000 0.707107 -0.866025 0.000000 0.500000 -0.965926 0.000000 0.258819 -1.000000 0.000000 0.000000 -0.965926 0.000000 -0.258819 -0.866025 0.000000 -0.500000 -0.707107 0.000000 -0.707107 -0.500000 0.000000 -0.866025 -0.258819 0.000000 -0.965926 -0.000000 0.000000 -1.000000 0.258819 0.000000 -0.965926 0.500000 0.000000 -0.866025 0.707107 0.000000 -0.707107 0.866025 0.000000 -0.500000 0.965926 0.000000 -0.258819</float_array>
          <technique_common>
            <accessor source="#vbase-mesh-normals-array" count="98" stride="3">
              <param name="X" type="float"/>
              <param name="Y" type="float"/>
              <param name="Z" type="float"/>
            </accessor>
          </technique_common>
        </source>
        <vertices id="vbase-mesh-vertices">
          <input semantic="POSITION" source="#vbase-mesh-positions"/>
        </vertices>
        <triangles material="Material_001-material" count="96">
          <input semantic="VERTEX" source="#vbase-mesh-vertices" offset="0"/>
          <input semantic="NORMAL" source="#vbase-mesh-normals" offset="1"/>
          <p>0 0 1 1 2 2 0 0 2 2 3 3 0 0 3 3 4 4 0 0 4 4 5 5 0 0 5 5 6 6 0 0 6 6 7 7 0 0 7 7 8 8 0 0 8 8 9 9 0 0 9 9 10 10 0 0 10 10 11 11 0 0 11 11 12 12 0 0 12 12 13 13 0 0 13 13 14 14 0 0 14 14 15 15 0 0 15 15 16 16 0 0 16 16 17 17 0 0 17 17 18 18 0 0 18 18 19 19 0 0 19 19 20 20 0 0 20 20 21 21 0 0 21 21 22 22 0 0 22 22 23 23 0 0 23 23 24 24 0 0 24 24 1 1 25 25 27 27 26 26 25 25 28 28 27 27 25 25 29 29 28 28 25 25 30 30 29 29 25 25 31 31 30 30 25 25 32 32 31 31 25 25 33 33 32 32 25 25 34 34 33 33 25 25 35 35 34 34 25 25 36 36 35 35 25 25 37 37 36 36 25 25 38 38 37 37 25 25 39 39 38 38 25 25 40 40 39 39 25 25 41 41 40 40 25 25 42 42 41 41 25 25 43 43 42 42 25 25 44 44 43 43 25 25 45 45 44 44 25 25 46 46 45 45 25 25 47 47 46 46 25 25 48 48 47 47 25 25 49 49 48 48 25 25 26 26 49 49 50 50 74 74 51 51 51 51 74 74 75 75 51 51 75 75 52 52 52 52 75 75 76 76 52 52 76 76 53 53 53 53 76 76 77 77 53 53 77 77 54 54 54 54 77 77 78 78 54 54 78 78 55 55 55 55 78 78 79 79 55 55 79 79 56 56 56 56 79 79 80 80 56 56 80 80 57 57 57 57 80 80 81 81 57 57 81 81 58 58 58 58 81 81 82 82 58 58 82 82 59 59 59 59 82 82 83 83 59 59 83 83 60 60 60 60 83 83 84 84 60 60 84 84 61 61 61 61 84 84 85 85 61 61 85 85 62 62 62 62 85 85 86 86 62 62 86 86 63 63 63 63 86 86 87 87 63 63 87 87 64 64 64 64 87 87 88 88 64 64 88 88 65 65 65 65 88 88 89 89 65 65 89 89 66 66 66 66 89 89 90 90 66 66 90 90 67 67 67 67 90 90 91 91 67 67 91 91 68 68 68 68 91 91 92 92 68 68 92 92 69 69 69 69 92 92 93 93 69 69 93 93 70 70 70 70 93 93 94 94 70 70 94 94 71 71 71 71 94 94 95 95 71 71 95 95 72 72 72 72 95 95 96 96 72 72 96 96 73 73 73 73 96 96 97 97 73 73 97 97 50 50 50 50 97 97 74 74</p>
        </triangles>
      </mesh>
    </geometry>
  </library_geometries>
  <library_controllers/>
  <library_visual_scenes>
    <visual_scene id="Scene" name="Scene">
      <node id="base" name="base" type="NODE">
        <matrix sid="transform">1 0 0 0 0 1 0 0 0 0 1 0 0 0 0 1</matrix>
        <instance_geometry url="#vbase-mesh" name="base">
          <bind_material>
            <technique_common>
              <instance_material symbol="Material_001-material" target="#Material_001-material"/>
            </technique_common>
          </bind_material>
        </instance_geometry>
        <node id="arm" name="arm" type="NODE">
          <matrix sid="transform">1 0 0 0 0 1 0 -0.045000 0 0 1 0 0 0 0 1</matrix>
          <instance_geometry url="#varm-mesh" name="arm"/>
          <node id="head" name="head" type="NODE">
            <matrix sid="transform">1 0 0 0 0 1 0 -0.090000 0 0 1 0 0 0 0 1</matrix>
            <instance_geometry url="#vhead-mesh" name="head"/>
          </node>
        </node>
      </node>
    </visual_scene>
  </library_visual_scenes>
  <scene>
    <instance_visual_scene url="#Scene"/>
  </scene>
</COLLADA>
